<svg xmlns="http://www.w3.org/2000/svg" width="163" height="212" viewBox="0 0 163 212">
  <metadata><?xpacket begin="﻿" id="W5M0MpCehiHzreSzNTczkc9d"?>
<x:xmpmeta xmlns:x="adobe:ns:meta/" x:xmptk="Adobe XMP Core 5.6-c138 79.159824, 2016/09/14-01:09:01        ">
   <rdf:RDF xmlns:rdf="http://www.w3.org/1999/02/22-rdf-syntax-ns#">
      <rdf:Description rdf:about=""/>
   </rdf:RDF>
</x:xmpmeta>
                                                                                                    
                                                                                                    
                                                                                                    
                                                                                                    
                                                                                                    
                                                                                                    
                                                                                                    
                                                                                                    
                                                                                                    
                                                                                                    
                                                                                                    
                                                                                                    
                                                                                                    
                                                                                                    
                                                                                                    
                                                                                                    
                                                                                                    
                                                                                                    
                                                                                                    
                                                                                                    
                           
<?xpacket end="w"?></metadata>
<defs>
    <style>
      .cls-1 {
        fill: #97a3de;
        fill-rule: evenodd;
      }
    </style>
  </defs>
  <path id="i2" data-name="i2" class="cls-1" d="M32,0h71c5.283,0.961,59.087,53.235,60,60V180a32,32,0,0,1-32,32H32A32,32,0,0,1,0,180V32A32,32,0,0,1,32,0Zm1,17H94c1.4,0.064,3.928.934,4,5,0.177,9.972-.008,28.415,0,38,0,2.487,3.112,5.946,6,6,5.37,0.1,25.977-.092,37,0,4.392,0.037,5.993,2.769,6,4V180a16,16,0,0,1-16,16H33a16,16,0,0,1-16-16V33A16,16,0,0,1,33,17Zm8,64h81a8,8,0,0,1,8,8v1a8,8,0,0,1-8,8H41a8,8,0,0,1-8-8V89A8,8,0,0,1,41,81Zm0,33h65a8,8,0,0,1,8,8v1a8,8,0,0,1-8,8H41a8,8,0,0,1-8-8v-1A8,8,0,0,1,41,114Zm0,33h81a8,8,0,0,1,8,8v1a8,8,0,0,1-8,8H41a8,8,0,0,1-8-8v-1A8,8,0,0,1,41,147Z"/>
</svg>
