<svg xmlns="http://www.w3.org/2000/svg" width="19" height="14" viewBox="0 0 19 14">
  <metadata><?xpacket begin="﻿" id="W5M0MpCehiHzreSzNTczkc9d"?>
<x:xmpmeta xmlns:x="adobe:ns:meta/" x:xmptk="Adobe XMP Core 5.6-c138 79.159824, 2016/09/14-01:09:01        ">
   <rdf:RDF xmlns:rdf="http://www.w3.org/1999/02/22-rdf-syntax-ns#">
      <rdf:Description rdf:about=""/>
   </rdf:RDF>
</x:xmpmeta>
                                                                                                    
                                                                                                    
                                                                                                    
                                                                                                    
                                                                                                    
                                                                                                    
                                                                                                    
                                                                                                    
                                                                                                    
                                                                                                    
                                                                                                    
                                                                                                    
                                                                                                    
                                                                                                    
                                                                                                    
                                                                                                    
                                                                                                    
                                                                                                    
                                                                                                    
                                                                                                    
                           
<?xpacket end="w"?></metadata>
<defs>
    <style>
      .cls-1 {
        fill: #537de9;
        fill-rule: evenodd;
      }
    </style>
  </defs>
  <path id="Фигура_1274" data-name="Фигура 1274" class="cls-1" d="M945.409,373.75a9.028,9.028,0,0,0-4.318-1.75l-0.211.427a8.3,8.3,0,0,1,4.1,2.2,12.861,12.861,0,0,0-12.954,0,8.486,8.486,0,0,1,4.1-2.2L935.909,372a8.974,8.974,0,0,0-4.318,1.75S929.38,377,929,383.375A8.108,8.108,0,0,0,934.614,386l0.707-.956a8.642,8.642,0,0,1-3.73-2.544,12,12,0,0,0,13.818,0,8.642,8.642,0,0,1-3.73,2.544L942.386,386A8.108,8.108,0,0,0,948,383.375C947.62,377,945.409,373.75,945.409,373.75Zm-9.716,7.875a1.769,1.769,0,1,1,1.512-1.75A1.644,1.644,0,0,1,935.693,381.625Zm5.614,0a1.769,1.769,0,1,1,1.511-1.75A1.644,1.644,0,0,1,941.307,381.625Z" transform="translate(-929 -372)"/>
</svg>
