<svg xmlns="http://www.w3.org/2000/svg" width="15.406" height="12.25" viewBox="0 0 15.406 12.25">
  <metadata><?xpacket begin="﻿" id="W5M0MpCehiHzreSzNTczkc9d"?>
<x:xmpmeta xmlns:x="adobe:ns:meta/" x:xmptk="Adobe XMP Core 5.6-c138 79.159824, 2016/09/14-01:09:01        ">
   <rdf:RDF xmlns:rdf="http://www.w3.org/1999/02/22-rdf-syntax-ns#">
      <rdf:Description rdf:about=""/>
   </rdf:RDF>
</x:xmpmeta>
                                                                                                    
                                                                                                    
                                                                                                    
                                                                                                    
                                                                                                    
                                                                                                    
                                                                                                    
                                                                                                    
                                                                                                    
                                                                                                    
                                                                                                    
                                                                                                    
                                                                                                    
                                                                                                    
                                                                                                    
                                                                                                    
                                                                                                    
                                                                                                    
                                                                                                    
                                                                                                    
                           
<?xpacket end="w"?></metadata>
<defs>
    <style>
      .cls-1 {
        fill: #537de9;
        fill-rule: evenodd;
      }
    </style>
  </defs>
  <path id="Фигура_12" data-name="Фигура 12" class="cls-1" d="M921.369,373.735a0.643,0.643,0,0,0-.218.039l-14.246,5.158a0.477,0.477,0,0,0-.288.294,0.469,0.469,0,0,0,.3.593l3.677,1.195,8.487-5.124,0.2,0.03-0.014.221-6.584,5.726L912.02,385.4a0.34,0.34,0,0,0,.1.308,0.35,0.35,0,0,0,.25.1,0.354,0.354,0,0,0,.247-0.1l2.316-2.268,3.454,2.424a0.771,0.771,0,0,0,.264.116,0.8,0.8,0,0,0,.159.017,0.728,0.728,0,0,0,.711-0.563l2.471-10.937a0.622,0.622,0,0,0-.024-0.352,0.634,0.634,0,0,0-.6-0.411" transform="translate(-906.594 -373.75)"/>
</svg>
